solid holed-cuboid_w-10.00_l-20.00_h-5.00
  facet normal 0.000000 0.000000 -1.000000
    outer loop
      vertex 10.000000 20.000000 0.000000
      vertex 0.000000 0.000000 0.000000
      vertex 0.000000 20.000000 0.000000
    endloop
  endfacet
  facet normal 0.000000 0.000000 -1.000000
    outer loop
      vertex 10.000000 0.000000 0.000000
      vertex 0.000000 0.000000 0.000000
      vertex 10.000000 20.000000 0.000000
    endloop
  endfacet
  facet normal -0.000000 0.000000 1.000000
    outer loop
      vertex 10.000000 20.000000 5.000000
      vertex 0.000000 0.000000 5.000000
      vertex 10.000000 0.000000 5.000000
    endloop
  endfacet
  facet normal -0.000000 0.000000 1.000000
    outer loop
      vertex 0.000000 20.000000 5.000000
      vertex 0.000000 0.000000 5.000000
      vertex 10.000000 20.000000 5.000000
    endloop
  endfacet
  facet normal 0.000000 -1.000000 0.000000
    outer loop
      vertex 10.000000 0.000000 5.000000
      vertex 0.000000 0.000000 0.000000
      vertex 10.000000 0.000000 0.000000
    endloop
  endfacet
  facet normal 0.000000 -1.000000 0.000000
    outer loop
      vertex 0.000000 0.000000 5.000000
      vertex 0.000000 0.000000 0.000000
      vertex 10.000000 0.000000 5.000000
    endloop
  endfacet
  facet normal 0.000000 1.000000 -0.000000
    outer loop
      vertex 10.000000 20.000000 5.000000
      vertex 0.000000 20.000000 0.000000
      vertex 0.000000 20.000000 5.000000
    endloop
  endfacet
  facet normal 0.000000 1.000000 -0.000000
    outer loop
      vertex 10.000000 20.000000 0.000000
      vertex 0.000000 20.000000 0.000000
      vertex 10.000000 20.000000 5.000000
    endloop
  endfacet
  facet normal -1.000000 0.000000 0.000000
    outer loop
      vertex 0.000000 20.000000 5.000000
      vertex 0.000000 0.000000 0.000000
      vertex 0.000000 0.000000 5.000000
    endloop
  endfacet
  facet normal -1.000000 0.000000 0.000000
    outer loop
      vertex 0.000000 20.000000 0.000000
      vertex 0.000000 0.000000 0.000000
      vertex 0.000000 20.000000 5.000000
    endloop
  endfacet
  facet normal 1.000000 -0.000000 0.000000
    outer loop
      vertex 10.000000 20.000000 5.000000
      vertex 10.000000 0.000000 0.000000
      vertex 10.000000 20.000000 0.000000
    endloop
  endfacet
  facet normal 1.000000 -0.000000 0.000000
    outer loop
      vertex 10.000000 0.000000 5.000000
      vertex 10.000000 0.000000 0.000000
      vertex 10.000000 20.000000 5.000000
    endloop
  endfacet
endsolid holed-cuboid_w-10.00_l-20.00_h-5.00
