# Generated by csgrs library
# Object: holed-cuboid_w-10.00_l-20.00_h-5.00_s-3_d-5.00
# https://github.com/timschmidt/csgrs

o holed-cuboid_w-10.00_l-20.00_h-5.00_s-3_d-5.00

v 0.000000 0.000000 0.000000
v 0.000000 5.669873 0.000000
v 10.000000 0.000000 0.000000
v 10.000000 11.443376 0.000000
v 0.000000 20.000000 0.000000
v 3.750000 7.834936 0.000000
v 3.750000 20.000000 0.000000
v 7.500000 10.000000 0.000000
v 3.750000 12.165064 0.000000
v 10.000000 20.000000 0.000000
v 10.000000 0.000000 5.000000
v 0.000000 5.669873 5.000000
v 0.000000 0.000000 5.000000
v 10.000000 11.443376 5.000000
v 3.750000 7.834936 5.000000
v 0.000000 20.000000 5.000000
v 3.750000 20.000000 5.000000
v 3.750000 12.165064 5.000000
v 7.500000 10.000000 5.000000
v 10.000000 20.000000 5.000000

vn 0.000000 0.000000 -1.000000
vn 0.000000 0.000000 1.000000
vn -0.500000 0.866025 0.000000
vn 1.000000 0.000000 -0.000000
vn -0.500000 -0.866025 0.000000
vn 0.000000 -1.000000 0.000000
vn 0.000000 1.000000 -0.000000
vn -1.000000 0.000000 0.000000

f 1//1 2//1 3//1
f 4//1 3//1 2//1
f 5//1 6//1 2//1
f 7//1 6//1 5//1
f 8//1 9//1 4//1
f 7//1 10//1 9//1
f 10//1 4//1 9//1
f 11//2 12//2 13//2
f 14//2 12//2 11//2
f 12//2 15//2 16//2
f 17//2 16//2 15//2
f 14//2 18//2 19//2
f 20//2 18//2 14//2
f 17//2 18//2 20//2
f 8//3 15//3 19//3
f 6//3 15//3 8//3
f 6//4 18//4 15//4
f 9//4 18//4 6//4
f 9//5 19//5 18//5
f 8//5 19//5 9//5
f 11//6 1//6 3//6
f 13//6 1//6 11//6
f 20//7 5//7 16//7
f 10//7 5//7 20//7
f 16//8 1//8 13//8
f 5//8 1//8 16//8
f 20//4 3//4 10//4
f 11//4 3//4 20//4
