# Generated by csgrs library
# Object: holed-cuboid_w-10.00_l-20.00_h-5.00
# https://github.com/timschmidt/csgrs

o holed-cuboid_w-10.00_l-20.00_h-5.00

v 10.000000 20.000000 0.000000
v 0.000000 0.000000 0.000000
v 0.000000 20.000000 0.000000
v 10.000000 0.000000 0.000000
v 10.000000 20.000000 5.000000
v 0.000000 0.000000 5.000000
v 10.000000 0.000000 5.000000
v 0.000000 20.000000 5.000000

vn 0.000000 0.000000 -1.000000
vn -0.000000 0.000000 1.000000
vn 0.000000 -1.000000 0.000000
vn 0.000000 1.000000 -0.000000
vn -1.000000 0.000000 0.000000
vn 1.000000 -0.000000 0.000000

f 1//1 2//1 3//1
f 4//1 2//1 1//1
f 5//2 6//2 7//2
f 8//2 6//2 5//2
f 7//3 2//3 4//3
f 6//3 2//3 7//3
f 5//4 3//4 8//4
f 1//4 3//4 5//4
f 8//5 2//5 6//5
f 3//5 2//5 8//5
f 5//6 4//6 1//6
f 7//6 4//6 5//6
