# Generated by csgrs library
# Object: holed-cuboid_w-10.00_l-20.00_h-5.00_s-50_d-5.00
# https://github.com/timschmidt/csgrs

o holed-cuboid_w-10.00_l-20.00_h-5.00_s-50_d-5.00

v 6.870853 0.000000 0.000000
v 8.129147 20.000000 0.000000
v 10.000000 0.000000 0.000000
v 10.000000 20.000000 0.000000
v 7.480287 9.686667 0.000000
v 5.632456 0.000000 0.000000
v 7.421458 9.378275 0.000000
v 4.374272 0.000000 0.000000
v 7.324441 9.079689 0.000000
v 3.051864 0.000000 0.000000
v 7.190767 8.795616 0.000000
v 1.608899 0.000000 0.000000
v 7.022542 8.530537 0.000000
v 0.000000 0.041741 0.000000
v 0.000000 0.000000 0.000000
v 6.822422 8.288632 0.000000
v 0.000000 1.881952 0.000000
v 6.593560 8.073717 0.000000
v 0.000000 3.283215 0.000000
v 6.339567 7.889180 0.000000
v 0.000000 4.403974 0.000000
v 6.064448 7.737932 0.000000
v 0.000000 5.336847 0.000000
v 5.772542 7.622359 0.000000
v 0.000000 6.140222 0.000000
v 5.468453 7.544282 0.000000
v 0.000000 6.853456 0.000000
v 5.156976 7.504933 0.000000
v 0.000000 7.504933 0.000000
v 4.843024 7.504933 0.000000
v 0.000000 8.116749 0.000000
v 4.531547 7.544282 0.000000
v 0.000000 8.707785 0.000000
v 4.227458 7.622359 0.000000
v 0.000000 9.296128 0.000000
v 3.935552 7.737932 0.000000
v 0.000000 9.901520 0.000000
v 3.660433 7.889180 0.000000
v 0.000000 10.548640 0.000000
v 3.406440 8.073717 0.000000
v 0.000000 11.272577 0.000000
v 3.177578 8.288632 0.000000
v 0.000000 12.129665 0.000000
v 2.977458 8.530537 0.000000
v 0.000000 13.222259 0.000000
v 2.809233 8.795616 0.000000
v 0.000000 14.765540 0.000000
v 2.675559 9.079689 0.000000
v 0.000000 17.314212 0.000000
v 2.578542 9.378275 0.000000
v 0.552340 20.000000 0.000000
v 0.000000 20.000000 0.000000
v 2.519713 9.686667 0.000000
v 1.870853 20.000000 0.000000
v 2.500000 10.000000 0.000000
v 3.129147 20.000000 0.000000
v 2.519713 10.313333 0.000000
v 4.367544 20.000000 0.000000
v 2.578542 10.621725 0.000000
v 5.625728 20.000000 0.000000
v 2.675559 10.920311 0.000000
v 6.948136 20.000000 0.000000
v 8.100319 19.541802 0.000000
v 2.809233 11.204384 0.000000
v 2.977458 11.469463 0.000000
v 7.972313 17.507207 0.000000
v 3.177578 11.711368 0.000000
v 7.885838 16.132718 0.000000
v 3.406440 11.926283 0.000000
v 7.823077 15.135158 0.000000
v 3.660433 12.110820 0.000000
v 7.775119 14.372887 0.000000
v 3.935552 12.262068 0.000000
v 7.737010 13.767172 0.000000
v 4.227458 12.377641 0.000000
v 7.705776 13.270722 0.000000
v 4.531547 12.455718 0.000000
v 7.679521 12.853400 0.000000
v 4.843024 12.495067 0.000000
v 7.656976 12.495067 0.000000
v 5.156976 12.495067 0.000000
v 7.637263 12.181734 0.000000
v 5.468453 12.455718 0.000000
v 7.619749 11.903359 0.000000
v 5.772542 12.377641 0.000000
v 7.603968 11.652529 0.000000
v 6.064448 12.262068 0.000000
v 7.589567 11.423626 0.000000
v 6.339567 12.110820 0.000000
v 7.576272 11.212301 0.000000
v 6.593560 11.926283 0.000000
v 7.563865 11.015106 0.000000
v 6.822422 11.711368 0.000000
v 7.552172 10.829251 0.000000
v 7.022542 11.469463 0.000000
v 7.541047 10.652430 0.000000
v 7.190767 11.204384 0.000000
v 7.530369 10.482694 0.000000
v 7.324441 10.920311 0.000000
v 7.520029 10.318354 0.000000
v 7.421458 10.621725 0.000000
v 7.509935 10.157912 0.000000
v 7.480287 10.313333 0.000000
v 7.500000 10.000000 0.000000
v 6.870853 0.000000 5.000000
v 10.000000 0.000000 5.000000
v 8.129147 20.000000 5.000000
v 10.000000 20.000000 5.000000
v 5.632456 0.000000 5.000000
v 7.480287 9.686667 5.000000
v 4.374272 0.000000 5.000000
v 7.421458 9.378275 5.000000
v 3.051864 0.000000 5.000000
v 7.324441 9.079689 5.000000
v 1.608899 0.000000 5.000000
v 7.190767 8.795616 5.000000
v 0.000000 0.041741 5.000000
v 0.000000 0.000000 5.000000
v 7.022542 8.530537 5.000000
v 0.000000 1.881952 5.000000
v 6.822422 8.288632 5.000000
v 0.000000 3.283215 5.000000
v 6.593560 8.073717 5.000000
v 0.000000 4.403974 5.000000
v 6.339567 7.889180 5.000000
v 0.000000 5.336847 5.000000
v 6.064448 7.737932 5.000000
v 0.000000 6.140222 5.000000
v 5.772542 7.622359 5.000000
v 0.000000 6.853456 5.000000
v 5.468453 7.544282 5.000000
v 0.000000 7.504933 5.000000
v 5.156976 7.504933 5.000000
v 0.000000 8.116749 5.000000
v 4.843024 7.504933 5.000000
v 0.000000 8.707785 5.000000
v 4.531547 7.544282 5.000000
v 0.000000 9.296128 5.000000
v 4.227458 7.622359 5.000000
v 0.000000 9.901520 5.000000
v 3.935552 7.737932 5.000000
v 0.000000 10.548640 5.000000
v 3.660433 7.889180 5.000000
v 0.000000 11.272577 5.000000
v 3.406440 8.073717 5.000000
v 0.000000 12.129665 5.000000
v 3.177578 8.288632 5.000000
v 0.000000 13.222259 5.000000
v 2.977458 8.530537 5.000000
v 0.000000 14.765540 5.000000
v 2.809233 8.795616 5.000000
v 0.000000 17.314212 5.000000
v 2.675559 9.079689 5.000000
v 0.552340 20.000000 5.000000
v 2.578542 9.378275 5.000000
v 0.000000 20.000000 5.000000
v 2.519713 9.686667 5.000000
v 1.870853 20.000000 5.000000
v 2.500000 10.000000 5.000000
v 3.129147 20.000000 5.000000
v 2.519713 10.313333 5.000000
v 4.367544 20.000000 5.000000
v 2.578542 10.621725 5.000000
v 5.625728 20.000000 5.000000
v 2.675559 10.920311 5.000000
v 6.948136 20.000000 5.000000
v 2.809233 11.204384 5.000000
v 8.100319 19.541802 5.000000
v 2.977458 11.469463 5.000000
v 7.972313 17.507207 5.000000
v 3.177578 11.711368 5.000000
v 7.885838 16.132718 5.000000
v 3.406440 11.926283 5.000000
v 7.823077 15.135158 5.000000
v 3.660433 12.110820 5.000000
v 7.775119 14.372887 5.000000
v 3.935552 12.262068 5.000000
v 7.737010 13.767172 5.000000
v 4.227458 12.377641 5.000000
v 7.705776 13.270722 5.000000
v 4.531547 12.455718 5.000000
v 7.679521 12.853400 5.000000
v 4.843024 12.495067 5.000000
v 7.656976 12.495067 5.000000
v 5.156976 12.495067 5.000000
v 7.637263 12.181734 5.000000
v 5.468453 12.455718 5.000000
v 7.619749 11.903359 5.000000
v 5.772542 12.377641 5.000000
v 7.603968 11.652529 5.000000
v 6.064448 12.262068 5.000000
v 7.589567 11.423626 5.000000
v 6.339567 12.110820 5.000000
v 7.576272 11.212301 5.000000
v 6.593560 11.926283 5.000000
v 7.563865 11.015106 5.000000
v 6.822422 11.711368 5.000000
v 7.552172 10.829251 5.000000
v 7.022542 11.469463 5.000000
v 7.541047 10.652430 5.000000
v 7.190767 11.204384 5.000000
v 7.530369 10.482694 5.000000
v 7.324441 10.920311 5.000000
v 7.520029 10.318354 5.000000
v 7.421458 10.621725 5.000000
v 7.509935 10.157912 5.000000
v 7.480287 10.313333 5.000000
v 7.500000 10.000000 5.000000

vn 0.000000 0.000000 -1.000000
vn 0.000000 0.000000 1.000000
vn -0.998027 0.062791 0.000000
vn -0.982287 0.187381 0.000000
vn -0.951057 0.309017 0.000000
vn -0.904827 0.425779 0.000000
vn -0.844328 0.535827 0.000000
vn -0.770513 0.637424 0.000000
vn -0.684547 0.728969 0.000000
vn -0.587785 0.809017 0.000000
vn -0.481754 0.876307 0.000000
vn -0.368125 0.929776 0.000000
vn -0.248690 0.968583 0.000000
vn -0.125333 0.992115 0.000000
vn 0.000000 1.000000 -0.000000
vn 0.125333 0.992115 -0.000000
vn 0.248690 0.968583 -0.000000
vn 0.368125 0.929776 -0.000000
vn 0.481754 0.876307 -0.000000
vn 0.587785 0.809017 -0.000000
vn 0.684547 0.728969 -0.000000
vn 0.770513 0.637424 -0.000000
vn 0.844328 0.535827 -0.000000
vn 0.904827 0.425779 -0.000000
vn 0.951057 0.309017 -0.000000
vn 0.982287 0.187381 -0.000000
vn 0.998027 0.062791 -0.000000
vn 0.998027 -0.062791 0.000000
vn 0.982287 -0.187381 0.000000
vn 0.951057 -0.309017 0.000000
vn 0.904827 -0.425779 0.000000
vn 0.844328 -0.535827 0.000000
vn 0.770513 -0.637424 0.000000
vn 0.684547 -0.728969 0.000000
vn 0.587785 -0.809017 0.000000
vn 0.481754 -0.876307 0.000000
vn 0.368125 -0.929776 0.000000
vn 0.248690 -0.968583 0.000000
vn 0.125333 -0.992115 0.000000
vn 0.000000 -1.000000 0.000000
vn -0.125333 -0.992115 0.000000
vn -0.248690 -0.968583 0.000000
vn -0.368125 -0.929776 0.000000
vn -0.481754 -0.876307 0.000000
vn -0.587785 -0.809017 0.000000
vn -0.684547 -0.728969 0.000000
vn -0.770513 -0.637424 0.000000
vn -0.844328 -0.535827 0.000000
vn -0.904827 -0.425779 0.000000
vn -0.951057 -0.309017 0.000000
vn -0.982287 -0.187381 0.000000
vn -0.998027 -0.062791 0.000000
vn -1.000000 0.000000 0.000000
vn 1.000000 -0.000000 0.000000

f 1//1 2//1 3//1
f 4//1 3//1 2//1
f 5//1 1//1 6//1
f 7//1 6//1 8//1
f 9//1 8//1 10//1
f 11//1 10//1 12//1
f 13//1 12//1 14//1
f 15//1 14//1 12//1
f 16//1 14//1 17//1
f 18//1 17//1 19//1
f 20//1 19//1 21//1
f 22//1 21//1 23//1
f 24//1 23//1 25//1
f 26//1 25//1 27//1
f 28//1 27//1 29//1
f 30//1 29//1 31//1
f 32//1 31//1 33//1
f 34//1 33//1 35//1
f 36//1 35//1 37//1
f 38//1 37//1 39//1
f 40//1 39//1 41//1
f 42//1 41//1 43//1
f 44//1 43//1 45//1
f 46//1 45//1 47//1
f 48//1 47//1 49//1
f 50//1 49//1 51//1
f 52//1 51//1 49//1
f 53//1 51//1 54//1
f 55//1 54//1 56//1
f 57//1 56//1 58//1
f 59//1 58//1 60//1
f 61//1 60//1 62//1
f 62//1 63//1 64//1
f 2//1 63//1 62//1
f 65//1 63//1 66//1
f 67//1 66//1 68//1
f 69//1 68//1 70//1
f 71//1 70//1 72//1
f 73//1 72//1 74//1
f 75//1 74//1 76//1
f 77//1 76//1 78//1
f 79//1 78//1 80//1
f 81//1 80//1 82//1
f 83//1 82//1 84//1
f 85//1 84//1 86//1
f 87//1 86//1 88//1
f 89//1 88//1 90//1
f 91//1 90//1 92//1
f 93//1 92//1 94//1
f 95//1 94//1 96//1
f 97//1 96//1 98//1
f 99//1 98//1 100//1
f 101//1 100//1 102//1
f 103//1 102//1 104//1
f 105//2 106//2 107//2
f 108//2 107//2 106//2
f 109//2 105//2 110//2
f 111//2 109//2 112//2
f 113//2 111//2 114//2
f 115//2 113//2 116//2
f 115//2 117//2 118//2
f 119//2 117//2 115//2
f 120//2 117//2 121//2
f 122//2 120//2 123//2
f 124//2 122//2 125//2
f 126//2 124//2 127//2
f 128//2 126//2 129//2
f 130//2 128//2 131//2
f 132//2 130//2 133//2
f 134//2 132//2 135//2
f 136//2 134//2 137//2
f 138//2 136//2 139//2
f 140//2 138//2 141//2
f 142//2 140//2 143//2
f 144//2 142//2 145//2
f 146//2 144//2 147//2
f 148//2 146//2 149//2
f 150//2 148//2 151//2
f 152//2 150//2 153//2
f 154//2 152//2 155//2
f 156//2 152//2 154//2
f 157//2 158//2 154//2
f 159//2 160//2 158//2
f 161//2 162//2 160//2
f 163//2 164//2 162//2
f 165//2 166//2 164//2
f 167//2 168//2 166//2
f 107//2 166//2 168//2
f 169//2 170//2 168//2
f 171//2 172//2 170//2
f 173//2 174//2 172//2
f 175//2 176//2 174//2
f 177//2 178//2 176//2
f 179//2 180//2 178//2
f 181//2 182//2 180//2
f 183//2 184//2 182//2
f 185//2 186//2 184//2
f 187//2 188//2 186//2
f 189//2 190//2 188//2
f 191//2 192//2 190//2
f 193//2 194//2 192//2
f 195//2 196//2 194//2
f 197//2 198//2 196//2
f 199//2 200//2 198//2
f 201//2 202//2 200//2
f 203//2 204//2 202//2
f 205//2 206//2 204//2
f 207//2 208//2 206//2
f 104//3 110//3 208//3
f 5//3 110//3 104//3
f 5//4 112//4 110//4
f 7//4 112//4 5//4
f 7//5 114//5 112//5
f 9//5 114//5 7//5
f 9//6 116//6 114//6
f 11//6 116//6 9//6
f 11//7 119//7 116//7
f 13//7 119//7 11//7
f 13//8 121//8 119//8
f 16//8 121//8 13//8
f 16//9 123//9 121//9
f 18//9 123//9 16//9
f 18//10 125//10 123//10
f 20//10 125//10 18//10
f 20//11 127//11 125//11
f 22//11 127//11 20//11
f 22//12 129//12 127//12
f 24//12 129//12 22//12
f 24//13 131//13 129//13
f 26//13 131//13 24//13
f 26//14 133//14 131//14
f 28//14 133//14 26//14
f 28//15 135//15 133//15
f 30//15 135//15 28//15
f 30//16 137//16 135//16
f 32//16 137//16 30//16
f 32//17 139//17 137//17
f 34//17 139//17 32//17
f 34//18 141//18 139//18
f 36//18 141//18 34//18
f 36//19 143//19 141//19
f 38//19 143//19 36//19
f 38//20 145//20 143//20
f 40//20 145//20 38//20
f 40//21 147//21 145//21
f 42//21 147//21 40//21
f 42//22 149//22 147//22
f 44//22 149//22 42//22
f 44//23 151//23 149//23
f 46//23 151//23 44//23
f 46//24 153//24 151//24
f 48//24 153//24 46//24
f 48//25 155//25 153//25
f 50//25 155//25 48//25
f 50//26 157//26 155//26
f 53//26 157//26 50//26
f 53//27 159//27 157//27
f 55//27 159//27 53//27
f 55//28 161//28 159//28
f 57//28 161//28 55//28
f 57//29 163//29 161//29
f 59//29 163//29 57//29
f 59//30 165//30 163//30
f 61//30 165//30 59//30
f 61//31 167//31 165//31
f 64//31 167//31 61//31
f 64//32 169//32 167//32
f 65//32 169//32 64//32
f 65//33 171//33 169//33
f 67//33 171//33 65//33
f 67//34 173//34 171//34
f 69//34 173//34 67//34
f 69//35 175//35 173//35
f 71//35 175//35 69//35
f 71//36 177//36 175//36
f 73//36 177//36 71//36
f 73//37 179//37 177//37
f 75//37 179//37 73//37
f 75//38 181//38 179//38
f 77//38 181//38 75//38
f 77//39 183//39 181//39
f 79//39 183//39 77//39
f 79//40 185//40 183//40
f 81//40 185//40 79//40
f 81//41 187//41 185//41
f 83//41 187//41 81//41
f 83//42 189//42 187//42
f 85//42 189//42 83//42
f 85//43 191//43 189//43
f 87//43 191//43 85//43
f 87//44 193//44 191//44
f 89//44 193//44 87//44
f 89//45 195//45 193//45
f 91//45 195//45 89//45
f 91//46 197//46 195//46
f 93//46 197//46 91//46
f 93//47 199//47 197//47
f 95//47 199//47 93//47
f 95//48 201//48 199//48
f 97//48 201//48 95//48
f 97//49 203//49 201//49
f 99//49 203//49 97//49
f 99//50 205//50 203//50
f 101//50 205//50 99//50
f 101//51 207//51 205//51
f 103//51 207//51 101//51
f 103//52 208//52 207//52
f 104//52 208//52 103//52
f 106//40 15//40 3//40
f 118//40 15//40 106//40
f 108//15 52//15 156//15
f 4//15 52//15 108//15
f 156//53 15//53 118//53
f 52//53 15//53 156//53
f 108//54 3//54 4//54
f 106//54 3//54 108//54
